<svg viewBox="0 0 400 400" xmlns="http://www.w3.org/2000/svg" xmlns:xlink="http://www.w3.org/1999/xlink"><linearGradient id="b" gradientUnits="userSpaceOnUse" x1="200" x2="200" y1="258.42" y2="5.07"><stop offset="0" stop-color="#27aae1"/><stop offset="1" stop-color="#1c75bc"/></linearGradient><linearGradient id="c" gradientUnits="userSpaceOnUse" x1="200.54" x2="199.45" y1="272.56" y2="398.51"><stop offset="0" stop-color="#fff"/><stop offset="1" stop-color="#d1d3d4"/></linearGradient><linearGradient id="a" gradientUnits="userSpaceOnUse" x1="205.39" x2="205.39" y1="358.34" y2="281.71"><stop offset="0" stop-color="#d1d3d4"/><stop offset="1" stop-color="#f1f2f2"/></linearGradient><linearGradient id="d" x1="205.39" x2="205.39" xlink:href="#a" y1="216.52" y2="162.61"/><linearGradient id="e" x1="205.39" x2="205.39" xlink:href="#a" y1="127.65" y2="91.86"/><path d="M0 0h400v270H0z" fill="url(#b)"/><path d="M0 270h400v130H0z" fill="url(#c)"/><path d="M228.54 228.3c75.06 22.7 56.68 142.59-23.15 140.2-79.82 2.38-98.21-117.49-23.14-140.2 0 0 5.67-2.62 22-2.73 20.69-.14 24.29 2.73 24.29 2.73z" fill="url(#a)"/><path d="M218.44 127c60.07 13.05 49.35 108.09-13.05 106.41-62.39 1.7-73.12-93.33-13.06-106.41a52.57 52.57 0 0 1 12.15-1.54 58 58 0 0 1 13.96 1.54z" fill="url(#d)"/><path d="M237.06 99.52c.6 41.09-63.94 41.09-63.33 0-.6-41.08 63.94-41.08 63.33 0z" fill="url(#e)"/><g fill="#231f20"><path d="M195.73 94.62c3.22 0 3.22-5 0-5s-3.22 5 0 5zm19.33 0c3.22 0 3.22-5 0-5s-3.22 5 0 5zm-9.67 24.64c3.22 0 3.23-5 0-5s-3.22 5 0 5zm10.53-2.26c3.22 0 3.22-5 0-5s-3.22 5 0 5zm-21.05 0c3.22 0 3.22-5 0-5s-3.22 5 0 5zm-7.21-7.14c3.22 0 3.22-5 0-5s-3.22 5 0 5zm35.47 0c3.21 0 3.22-5 0-5s-3.23 5 0 5zm-17.74 47.6a5 5 0 1 0-5-5 5 5 0 0 0 5 5zm0 26.22a5 5 0 1 0-5-5 5 5 0 0 0 5 5zm0 29.32a5 5 0 1 0-5-5 5.1 5.1 0 0 0 5 5zm0 51.29a5 5 0 1 0-5-5 5 5 0 0 0 5 5zm0 39.11a5 5 0 1 0-5-5 5 5 0 0 0 5 5zm0 36.89a5 5 0 1 0-5-5 5 5 0 0 0 5 5z"/></g></svg>