<svg viewBox="0 0 400 400" xmlns="http://www.w3.org/2000/svg" xmlns:xlink="http://www.w3.org/1999/xlink"><linearGradient id="a" gradientUnits="userSpaceOnUse" x1="200" x2="200" y1="258.42" y2="5.07"><stop offset="0" stop-color="#27aae1"/><stop offset="1" stop-color="#1c75bc"/></linearGradient><linearGradient id="b" gradientUnits="userSpaceOnUse" x1="200.54" x2="199.45" y1="272.56" y2="398.51"><stop offset="0" stop-color="#fff"/><stop offset="1" stop-color="#d1d3d4"/></linearGradient><linearGradient id="c" gradientUnits="userSpaceOnUse" x1="205.39" x2="205.39" y1="358.34" y2="281.71"><stop offset="0" stop-color="#d1d3d4"/><stop offset="1" stop-color="#f1f2f2"/></linearGradient><linearGradient id="d" x1="205.39" x2="205.39" xlink:href="#c" y1="216.52" y2="162.61"/><linearGradient id="e" x1="205.39" x2="205.39" xlink:href="#c" y1="127.65" y2="91.86"/><path d="m0 0h400v270h-400z" fill="url(#a)"/><path d="m0 270h400v130h-400z" fill="url(#b)"/><g fill="none" stroke="#603913" stroke-miterlimit="10" stroke-width="5"><path d="m250.9 168.24c10.39 9.85 33.73 28.15 48 31 2.53 11.69 7.32 30.8 4.17 42.67"/><path d="m322.11 234.07-18.64-12.61"/><path d="m285.97 194.11-2.7-13.21"/><path d="m160.47 166.79c-18.51 13.09-27 26.79-30.53 49.11-15.4 7.26-39 23.83-57 18.77"/><path d="m85.73 250.58 13.09-19.2"/><path d="m134.3 198.68-27.9-1.45"/></g><path d="m228.54 228.3c75.06 22.7 56.68 142.59-23.15 140.2-79.82 2.38-98.21-117.49-23.14-140.2 0 0 5.67-2.62 22-2.73 20.69-.14 24.29 2.73 24.29 2.73z" fill="url(#c)"/><path d="m218.44 127c60.07 13.05 49.35 108.09-13.05 106.41-62.39 1.7-73.12-93.33-13.06-106.41a52.57 52.57 0 0 1 12.15-1.54 58 58 0 0 1 13.96 1.54z" fill="url(#d)"/><path d="m237.06 99.52c.6 41.09-63.94 41.09-63.33 0-.6-41.08 63.94-41.08 63.33 0z" fill="url(#e)"/><path d="m195.73 94.62c3.22 0 3.22-5 0-5s-3.22 5 0 5zm19.33 0c3.22 0 3.22-5 0-5s-3.22 5 0 5zm-9.67 24.64c3.22 0 3.23-5 0-5s-3.22 5 0 5zm10.53-2.26c3.22 0 3.22-5 0-5s-3.22 5 0 5zm-21.05 0c3.22 0 3.22-5 0-5s-3.22 5 0 5zm-7.21-7.14c3.22 0 3.22-5 0-5s-3.22 5 0 5zm35.47 0c3.21 0 3.22-5 0-5s-3.23 5 0 5z" fill="#231f20"/><path d="m207.74 100.44-13.15-1c-3.17-.51-19.35-5.51-22.2-3.26 8.46-.59 37.26 19.19 35.35 4.26z" fill="#f15a29" stroke="#f15a29" stroke-miterlimit="10" stroke-width="3"/><path d="m205.39 157.46a5 5 0 1 0 -5-5 5 5 0 0 0 5 5zm0 26.22a5 5 0 1 0 -5-5 5 5 0 0 0 5 5zm0 29.32a5 5 0 1 0 -5-5 5.1 5.1 0 0 0 5 5zm0 51.29a5 5 0 1 0 -5-5 5 5 0 0 0 5 5zm0 39.11a5 5 0 1 0 -5-5 5 5 0 0 0 5 5zm0 36.89a5 5 0 1 0 -5-5 5 5 0 0 0 5 5z" fill="#231f20"/></svg>