<svg viewBox="0 0 400 400" xmlns="http://www.w3.org/2000/svg" xmlns:xlink="http://www.w3.org/1999/xlink"><linearGradient id="b" gradientUnits="userSpaceOnUse" x1="200" x2="200" y1="258.42" y2="5.07"><stop offset="0" stop-color="#27aae1"/><stop offset="1" stop-color="#1c75bc"/></linearGradient><linearGradient id="c" gradientUnits="userSpaceOnUse" x1="200.54" x2="199.45" y1="272.56" y2="398.51"><stop offset="0" stop-color="#fff"/><stop offset="1" stop-color="#d1d3d4"/></linearGradient><linearGradient id="a" gradientUnits="userSpaceOnUse" x1="205.39" x2="205.39" y1="358.34" y2="281.71"><stop offset="0" stop-color="#d1d3d4"/><stop offset="1" stop-color="#f1f2f2"/></linearGradient><linearGradient id="d" x1="205.39" x2="205.39" xlink:href="#a" y1="216.52" y2="162.61"/><linearGradient id="e" x1="205.39" x2="205.39" xlink:href="#a" y1="127.65" y2="91.86"/><linearGradient id="f" gradientUnits="userSpaceOnUse" x1="199" x2="231.89" y1="48.64" y2="55.3"><stop offset="0" stop-color="#231f20"/><stop offset="1" stop-color="#6d6e71"/></linearGradient><path d="M0 0h400v270H0z" fill="url(#b)"/><path d="M0 270h400v130H0z" fill="url(#c)"/><path d="M250.9 168.24c10.39 9.85 33.73 28.15 48 31 2.53 11.69 7.32 30.8 4.17 42.67m19.04-7.84l-18.64-12.61m-17.5-27.35l-2.7-13.21" fill="none" stroke="#603913" stroke-miterlimit="10" stroke-width="5"/><path d="M311.93 213.73l-18.34 6.67c0 2.44-11.07 21.71-7.33 23.49 4.2 3.53 7.86-8 9.83-9.82-.33 50.93 58.38 14.66 15.84-20.34z" fill="#da1c5c"/><path d="M160.47 166.79c-18.51 13.09-27 26.79-30.53 49.11-15.4 7.26-39 23.83-57 18.77m12.79 15.91l13.09-19.2m35.48-32.7l-27.9-1.45" fill="none" stroke="#603913" stroke-miterlimit="10" stroke-width="5"/><path d="M86.58 256.5l8.82-5.21c-.13 3.3-.13 18.14 5.93 10l4.67-19.95c-10.06-23.07-4-16.93-27.56-13-23.13 10.92-22.35 40.04 8.14 28.16z" fill="#da1c5c"/><path d="M228.54 228.3c75.06 22.7 56.68 142.59-23.15 140.2-79.82 2.38-98.21-117.49-23.14-140.2 0 0 5.67-2.62 22-2.73 20.69-.14 24.29 2.73 24.29 2.73z" fill="url(#a)"/><path d="M218.44 127c60.07 13.05 49.35 108.09-13.05 106.41-62.39 1.7-73.12-93.33-13.06-106.41a52.57 52.57 0 0 1 12.15-1.54 58 58 0 0 1 13.96 1.54z" fill="url(#d)"/><path d="M237.06 99.52c.6 41.09-63.94 41.09-63.33 0-.6-41.08 63.94-41.08 63.33 0z" fill="url(#e)"/><g fill="#231f20"><path d="M195.73 94.62c3.22 0 3.22-5 0-5s-3.22 5 0 5zm19.33 0c3.22 0 3.22-5 0-5s-3.22 5 0 5zm-9.67 24.64c3.22 0 3.23-5 0-5s-3.22 5 0 5zm10.53-2.26c3.22 0 3.22-5 0-5s-3.22 5 0 5zm-21.05 0c3.22 0 3.22-5 0-5s-3.22 5 0 5zm-7.21-7.14c3.22 0 3.22-5 0-5s-3.22 5 0 5zm35.47 0c3.21 0 3.22-5 0-5s-3.23 5 0 5z"/></g><path d="M202.62 84.54l-23.14-2.22c.68 5.68 3.08 14.42 8.68 16.42 13.64 3.57 15.07-6.42 18.32-9.5 8.15 16 21.6 16.57 28.56-.93-6.71-.75-26.04-3.04-32.42-3.77z" fill="#414042"/><path d="M207.74 100.44l-13.15-1c-3.17-.51-19.35-5.51-22.2-3.26 8.46-.59 37.26 19.19 35.35 4.26z" fill="#f15a29" stroke="#f15a29" stroke-miterlimit="10" stroke-width="3"/><path d="M205.39 157.46a5 5 0 1 0-5-5 5 5 0 0 0 5 5zm0 26.22a5 5 0 1 0-5-5 5 5 0 0 0 5 5zm0 29.32a5 5 0 1 0-5-5 5.1 5.1 0 0 0 5 5zm0 51.29a5 5 0 1 0-5-5 5 5 0 0 0 5 5zm0 39.11a5 5 0 1 0-5-5 5 5 0 0 0 5 5zm0 36.89a5 5 0 1 0-5-5 5 5 0 0 0 5 5z" fill="#231f20"/><path d="M183 68c-8 5 62.34 17.55 56.65 10.17.84-2.4-10.16-2.62-11.11-3.28l7.91-44.07c1.07-2.15-34.27-8.26-34-6.11l-7.91 44.08C193.47 69 183 65.44 183 68z" fill="url(#f)"/><path d="M183.8 124c12.47 1.09 25.47 7.43 37.63 1.92 2.71-1.23 20.44 12.05 20.44 12.05-16.53 10-55 4.2-71.2-1.34-2.45-3.12 12.78-7.31 13.13-12.63z" fill="#39b54a"/><path d="M169 184.47c4-4.44 11.57-68 23.8-56.28l-6.5 61.28c-.13 3.1-18.3-2.42-17.3-5z" fill="#39b54a"/></svg>