<svg viewBox="0 0 400 400" xmlns="http://www.w3.org/2000/svg" xmlns:xlink="http://www.w3.org/1999/xlink"><linearGradient id="a" gradientUnits="userSpaceOnUse" x1="200" x2="200" y1="258.42" y2="5.07"><stop offset="0" stop-color="#27aae1"/><stop offset="1" stop-color="#1c75bc"/></linearGradient><linearGradient id="b" gradientUnits="userSpaceOnUse" x1="200.54" x2="199.45" y1="272.56" y2="398.51"><stop offset="0" stop-color="#fff"/><stop offset="1" stop-color="#d1d3d4"/></linearGradient><linearGradient id="c" gradientUnits="userSpaceOnUse" x1="205.39" x2="205.39" y1="358.34" y2="281.71"><stop offset="0" stop-color="#d1d3d4"/><stop offset="1" stop-color="#f1f2f2"/></linearGradient><linearGradient id="d" x1="205.39" x2="205.39" xlink:href="#c" y1="216.52" y2="162.61"/><linearGradient id="e" x1="205.39" x2="205.39" xlink:href="#c" y1="127.65" y2="91.86"/><linearGradient id="f" gradientUnits="userSpaceOnUse" x1="199" x2="231.89" y1="48.64" y2="55.3"><stop offset="0" stop-color="#231f20"/><stop offset="1" stop-color="#6d6e71"/></linearGradient><path d="m0 0h400v270h-400z" fill="url(#a)"/><path d="m0 270h400v130h-400z" fill="url(#b)"/><g fill="none" stroke="#603913" stroke-miterlimit="10" stroke-width="5"><path d="m250.9 168.24c10.39 9.85 33.73 28.15 48 31 2.53 11.69 7.32 30.8 4.17 42.67"/><path d="m322.11 234.07-18.64-12.61"/><path d="m285.97 194.11-2.7-13.21"/></g><path d="m311.93 213.73-18.34 6.67c0 2.44-11.07 21.71-7.33 23.49 4.2 3.53 7.86-8 9.83-9.82-.33 50.93 58.38 14.66 15.84-20.34z" fill="#da1c5c"/><path d="m160.47 166.79c-18.51 13.09-27 26.79-30.53 49.11-15.4 7.26-39 23.83-57 18.77" fill="none" stroke="#603913" stroke-miterlimit="10" stroke-width="5"/><path d="m85.73 250.58 13.09-19.2" fill="none" stroke="#603913" stroke-miterlimit="10" stroke-width="5"/><path d="m134.3 198.68-27.9-1.45" fill="none" stroke="#603913" stroke-miterlimit="10" stroke-width="5"/><path d="m86.58 256.5 8.82-5.21c-.13 3.3-.13 18.14 5.93 10l4.67-19.95c-10.06-23.07-4-16.93-27.56-13-23.13 10.92-22.35 40.04 8.14 28.16z" fill="#da1c5c"/><path d="m228.54 228.3c75.06 22.7 56.68 142.59-23.15 140.2-79.82 2.38-98.21-117.49-23.14-140.2 0 0 5.67-2.62 22-2.73 20.69-.14 24.29 2.73 24.29 2.73z" fill="url(#c)"/><path d="m218.44 127c60.07 13.05 49.35 108.09-13.05 106.41-62.39 1.7-73.12-93.33-13.06-106.41a52.57 52.57 0 0 1 12.15-1.54 58 58 0 0 1 13.96 1.54z" fill="url(#d)"/><path d="m237.06 99.52c.6 41.09-63.94 41.09-63.33 0-.6-41.08 63.94-41.08 63.33 0z" fill="url(#e)"/><path d="m195.73 94.62c3.22 0 3.22-5 0-5s-3.22 5 0 5zm19.33 0c3.22 0 3.22-5 0-5s-3.22 5 0 5zm-9.67 24.64c3.22 0 3.23-5 0-5s-3.22 5 0 5zm10.53-2.26c3.22 0 3.22-5 0-5s-3.22 5 0 5zm-21.05 0c3.22 0 3.22-5 0-5s-3.22 5 0 5zm-7.21-7.14c3.22 0 3.22-5 0-5s-3.22 5 0 5zm35.47 0c3.21 0 3.22-5 0-5s-3.23 5 0 5z" fill="#231f20"/><path d="m207.74 100.44-13.15-1c-3.17-.51-19.35-5.51-22.2-3.26 8.46-.59 37.26 19.19 35.35 4.26z" fill="#f15a29" stroke="#f15a29" stroke-miterlimit="10" stroke-width="3"/><path d="m205.39 157.46a5 5 0 1 0 -5-5 5 5 0 0 0 5 5zm0 26.22a5 5 0 1 0 -5-5 5 5 0 0 0 5 5zm0 29.32a5 5 0 1 0 -5-5 5.1 5.1 0 0 0 5 5zm0 51.29a5 5 0 1 0 -5-5 5 5 0 0 0 5 5zm0 39.11a5 5 0 1 0 -5-5 5 5 0 0 0 5 5zm0 36.89a5 5 0 1 0 -5-5 5 5 0 0 0 5 5z" fill="#231f20"/><path d="m183 68c-8 5 62.34 17.55 56.65 10.17.84-2.4-10.16-2.62-11.11-3.28l7.91-44.07c1.07-2.15-34.27-8.26-34-6.11l-7.91 44.08c-1.07.21-11.54-3.35-11.54-.79z" fill="url(#f)"/><path d="m183.8 124c12.47 1.09 25.47 7.43 37.63 1.92 2.71-1.23 20.44 12.05 20.44 12.05-16.53 10-55 4.2-71.2-1.34-2.45-3.12 12.78-7.31 13.13-12.63z" fill="#39b54a"/><path d="m169 184.47c4-4.44 11.57-68 23.8-56.28l-6.5 61.28c-.13 3.1-18.3-2.42-17.3-5z" fill="#39b54a"/></svg>