<svg height="192pt" preserveAspectRatio="xMidYMid meet" viewBox="0 0 192 192" width="192pt" xmlns="http://www.w3.org/2000/svg"><g transform="matrix(.1 0 0 -.1 0 192)"><path d="m305 1912c-13-9-35-72-35-102 0-12-4-39-9-59-12-46-39-193-46-249-2-24-6-46-9-50-5-10-25-197-46-437-12-146-4-795 10-809 6-6 46-16 88-22 42-7 109-17 147-23 39-7 81-9 94-6 14 4 27 1 32-6 5-8 32-13 75-13 39 0 59-3 48-7-22-9-15-11 56-15 25-2 88-10 140-19s104-13 114-11c11 3 25 1 30-4 13-10 273-51 314-49 36 1 109-8 122-16 5-3 10-1 10 5 0 7 6 8 18 2 16-8 69-14 142-16l35-1v155c1 85-2 167-6 183-4 15-4 27 2 27 5 0 8 39 7 87-1 75 8 271 18 353 1 14 5 66 8 115 4 50 9 108 12 130s7 76 10 120c2 44 9 94 14 110 5 17 8 46 6 65-1 19 3 67 10 105 7 39 13 88 15 110s11 52 22 67c10 16 15 32 12 38-3 5 0 10 7 10 9 0 8 4-2 14-15 14-243 53-360 62-36 2-107 11-157 20-51 8-97 13-102 10-5-4-12-2-16 4-3 5-21 10-39 10s-77 7-132 16c-54 8-116 17-136 19-21 3-50 7-65 10-16 3-69 12-120 19-51 8-97 17-102 20-5 4-49 9-98 12-48 4-96 10-105 15-20 11-20 11-33 1zm495-202c0-5-5-10-11-10-5 0-7 5-4 10 3 6 8 10 11 10 2 0 4-4 4-10zm-30-50c0-5-2-10-4-10-3 0-8 5-11 10-3 6-1 10 4 10 6 0 11-4 11-10zm30-20c0-5-5-10-11-10-5 0-7 5-4 10 3 6 8 10 11 10 2 0 4-4 4-10zm26-25c-7-20 19-31 78-33 27-1 55-7 62-13 8-7 24-13 37-14 12-1 28-3 35-4 7 0 10-5 7-11s1-7 9-4c11 4 16 0 16-11 0-9 4-13 10-10 14 9 90-70 90-94 0-12 5-21 11-21s9-7 5-15c-3-8-1-15 4-15 6 0 10-5 10-11 0-5-4-8-8-5-11 7-9-48 3-57 6-6 6-10-3-14-6-2-10-8-7-13 3-4-2-26-10-49s-12-47-9-54c2-7-2-29-11-49-8-20-12-45-8-54 4-12 3-15-5-10-7 4-12 2-12-3 0-6 5-11 11-11 8 0 8-4 1-12-19-24-31-85-19-97 8-8 6-11-8-11-16 0-17-2-6-9 12-8 12-12 2-25-8-9-10-16-5-16 4 0 3-5-3-11s-9-18-6-25c3-8 0-14-7-14-9 0-10-3-1-14 8-10 9-21 0-42-6-16-12-53-14-82-3-47-1-52 13-40 9 7 13 9 10 3-2-5-8-18-12-29-5-14-9-16-20-7-10 8-16 9-21 1-3-5-11-10-17-10-7 0-6 6 2 15s9 15 2 15c-6 0-13-4-16-9-9-14-76 10-87 31-8 14-6 18 8 18 17 1 17 1 1 11-9 5-15 16-12 23 3 8 0 17-5 21-6 3-8 12-4 18 3 7-3 4-14-6-11-9-29-17-41-17s-22-5-22-11-9-8-20-4-20 2-20-4-11-11-24-11c-14 0-28-5-31-10-4-6-11-7-17-4-6 4-14 0-19-7-7-11-9-9-9 6 0 14-3 16-11 8-7-7-21-8-41-2-17 4-34 6-38 4-10-6-133 36-141 47-3 6-9 9-12 9-15-1-67 35-67 47 0 7-4 10-10 7-5-3-10 3-10 14 0 13-7 21-16 21-11 0-15 6-11 20 3 12 1 18-5 14-5-4-9 4-8 17s1 29 0 34c-7 24-4 51 5 58 6 4 5 10-3 16-11 7-10 15 4 47 9 21 16 42 16 46-3 11 44 58 58 58 7 0 10 7 6 15-4 10 1 15 14 15 12 0 20 7 20 18 0 14 2 15 10 2 7-11 12-12 18-4 16 26 312 38 336 14 14-14 29-13 20 1-4 8 1 9 17 3 26-10 166-11 175-2 12 13 5 163-9 173-7 5-16 18-20 29s-13 16-22 12c-9-3-15 0-15 8 0 14-74 51-97 49-7 0-13 3-13 9 0 5-6 6-12 1-18-11-69-13-62-2 3 5 0 9-5 9-6 0-11-5-11-11s-6-9-12-6c-21 7-64 17-50 11 20-9 14-23-8-17-11 3-20 0-20-6s-5-11-11-11c-14 0-59-51-59-66 0-6-8-18-17-25-15-12-16-12-10 4 3 9 2 17-2 17-5 0-11-6-14-12-3-10-7-10-19-1-8 7-18 10-21 6-4-3-7-1-7 5 0 7-8 12-18 12s-27 6-37 14c-17 12-18 15-3 30 9 8 24 34 35 56 10 23 25 40 35 40s26 10 37 21c11 12 32 22 46 22 18 0 25 4 21 13-3 8-1 14 4 14 6 0 10-6 10-12 0-9 3-9 9 1s33 15 87 16c47 2 80 7 82 14 2 6 6 11 9 11s3-7-1-15zm39-15c3-5 2-10-4-10-5 0-13 5-16 10-3 6-2 10 4 10 5 0 13-4 16-10zm-170-1180c3-5 1-10-4-10-6 0-11 5-11 10 0 6 2 10 4 10 3 0 8-4 11-10zm-30-60c3-5 1-10-4-10-6 0-11 5-11 10 0 6 2 10 4 10 3 0 8-4 11-10zm0-70c3-5 1-10-4-10-6 0-11 5-11 10 0 6 2 10 4 10 3 0 8-4 11-10zm-20-30c3-5 1-10-4-10-6 0-11 5-11 10 0 6 2 10 4 10 3 0 8-4 11-10zm25-44c0-3-4-8-10-11-5-3-10-1-10 4 0 6 5 11 10 11 6 0 10-2 10-4zm27-22c-3-3-12-4-19-1-8 3-5 6 6 6 11 1 17-2 13-5zm-22-24c3-5 1-10-4-10-6 0-11 5-11 10 0 6 2 10 4 10 3 0 8-4 11-10z"/><path d="m677 1093c-4-3-30-7-59-8-40-2-55-7-69-24-10-13-23-20-28-16-14 8-32-30-24-51 4-11 3-15-5-10s-10-5-6-31c2-21 9-40 14-41 6-2 8-8 4-13-3-5-2-15 3-21 4-7 8-16 9-20 1-5 2-11 3-14 0-4 8-1 16 6 13 10 15 9 15-9 0-12 5-19 10-16 6 3 10 1 10-5 0-7 8-9 21-5 14 5 19 3 15-3s2-16 13-21c28-16 41-13 41 7 0 15 2 15 10 2 9-13 12-12 25 4 13 17 15 17 15 4 0-18 16-20 83-11 23 3 35 9 30 16-4 6 0 8 10 4 9-3 18 0 21 8s12 12 21 9c10-4 15 0 15 10 0 9 7 16 15 16s15 9 15 19 7 22 16 25c8 3 13 10 9 15-3 6 3 14 12 20 13 8 14 10 4 11-12 0-11 3 2 13 15 11 21 55 15 108-1 16-58 24-58 7 0-4-5-8-11-8s-8 7-5 16c5 14 4 15-9 4-8-7-21-10-30-7-8 4-17 2-20-3s-19-5-38 1c-21 6-33 6-35-1-2-5-8-10-13-10-4 0-6 8-3 18 5 13 4 14-4 3-6-8-18-11-31-6-12 4-21 2-21-4s-4-11-10-11c-5 0-7 7-4 15 6 16 2 20-9 8zm58-223c3-5 1-10-4-10-6 0-11 5-11 10 0 6 2 10 4 10 3 0 8-4 11-10zm-5-30c0-5-2-10-4-10-3 0-8 5-11 10-3 6-1 10 4 10 6 0 11-4 11-10zm-90-36c0-8-5-12-10-9-6 4-8 11-5 16 9 14 15 11 15-7z"/></g></svg>